<?xml version="1.0" encoding="utf-8"?>
<!-- Generator: Adobe Illustrator 18.1.1, SVG Export Plug-In . SVG Version: 6.00 Build 0)  -->
<svg version="1.1" id="Layer_1" xmlns="http://www.w3.org/2000/svg" xmlns:xlink="http://www.w3.org/1999/xlink" x="0px" y="0px"
	 viewBox="0 0 233 59.3" enable-background="new 0 0 233 59.3" xml:space="preserve">
<text transform="matrix(1 0 0 1 302.9604 363.9707)" fill="#001E42" font-family="'MyriadPro-Regular'" font-size="12">color: #001e42</text>
<g>
	<g>
		<path fill="#001E42" d="M11.2,9.9C0.7,20.4,0.7,37.5,11.2,48c10.5,10.5,27.6,10.5,38.1,0c10.5-10.5,10.5-27.6,0-38.1
			C38.8-0.6,21.7-0.6,11.2,9.9z M45.9,44.6c-8.6,8.6-22.7,8.6-31.3,0l5.6-5.6c5.6,5.6,14.6,5.6,20.1,0c5.6-5.6,5.6-14.6,0-20.1l-4,4
			L20.2,39c-5.6-5.6-5.6-14.6,0-20.1c5.6-5.6,14.6-5.6,20.1,0l5.6-5.6C54.6,21.9,54.6,35.9,45.9,44.6z"/>
	</g>
	<g>
		<g>
			<path fill="#001E42" d="M104.8,12.7c2.9,2.4,4.4,6.2,4.4,11.2c0,5-1.5,8.7-4.5,11.1c-3,2.3-7.6,3.5-13.8,3.5h-7.5v12.2h-7.1V9.1
				h14.5C97.2,9.1,101.9,10.3,104.8,12.7z M99.8,29.9c1.4-1.5,2.2-3.7,2.2-6.6c0-2.9-0.9-4.9-2.7-6.1c-1.8-1.2-4.7-1.8-8.5-1.8h-7.3
				v16.7h8.3C95.6,32.2,98.3,31.4,99.8,29.9z"/>
			<path fill="#001E42" d="M136.2,36.2V19.1h6.8v31.7h-6.8V45c-1.1,1.9-2.6,3.5-4.5,4.6c-1.9,1.1-4,1.7-6.2,1.7
				c-3.6,0-6.6-1.1-8.8-3.3c-2.2-2.2-3.4-5.3-3.4-9.5V19.1h6.8v17.4c0,5.8,2.5,8.8,7.4,8.8c2.3,0,4.4-0.8,6.1-2.3
				C135.3,41.4,136.2,39.2,136.2,36.2z"/>
			<path fill="#001E42" d="M166.7,25.3c-3.4,0-5.9,1.1-7.6,3.2c-1.7,2.1-2.5,5-2.5,8.6v13.6h-6.8V19.1h6.8v6.4
				c1.1-2,2.6-3.6,4.5-4.9c1.9-1.3,3.9-1.9,6-2l0.1,6.7C166.9,25.3,166.8,25.3,166.7,25.3z"/>
			<path fill="#001E42" d="M194.3,41.3c0,3-1.1,5.4-3.3,7.2c-2.2,1.8-5.1,2.7-8.5,2.7c-2.3,0-4.8-0.4-7.3-1.2
				c-2.5-0.8-4.8-2-6.7-3.5l3.3-5.2c3.8,2.8,7.4,4.2,10.9,4.2c1.5,0,2.7-0.3,3.6-1c0.9-0.7,1.3-1.6,1.3-2.7c0-1.6-2.1-3-6.4-4.3
				c-0.3-0.1-0.6-0.2-0.7-0.2c-6.7-1.8-10.1-4.8-10.1-8.9c0-2.9,1.2-5.3,3.5-7.1c2.3-1.8,5.3-2.7,9.1-2.7c3.7,0,7.2,1.1,10.5,3.2
				l-2.5,4.9c-2.6-1.7-5.5-2.6-8.5-2.6c-1.6,0-2.9,0.3-3.9,0.9c-1,0.6-1.5,1.4-1.5,2.6c0,1,0.5,1.8,1.6,2.3c0.7,0.4,1.7,0.7,3.1,1
				c1.3,0.3,2.5,0.6,3.5,1c1,0.3,2,0.7,2.9,1.1c0.9,0.4,2,1,3.1,1.7C193.2,36,194.3,38.3,194.3,41.3z"/>
			<path fill="#001E42" d="M229.6,37.8h-25.3c0.2,2.3,1.2,4.2,3.2,5.6c2,1.4,4.2,2.1,6.8,2.1c4,0,7.1-1.3,9.2-3.8l3.9,4.2
				c-3.5,3.5-8,5.3-13.6,5.3c-4.5,0-8.4-1.5-11.5-4.4c-3.2-3-4.8-6.9-4.8-11.9c0-5,1.6-9,4.8-11.9c3.2-2.9,7-4.4,11.4-4.4
				c4.4,0,8.1,1.3,11.2,3.9c3.1,2.6,4.6,6.2,4.6,10.8V37.8z M204.3,32.6h18.5c0-2.7-0.8-4.7-2.5-6.1c-1.7-1.4-3.8-2.1-6.3-2.1
				c-2.5,0-4.7,0.7-6.7,2.2C205.3,28,204.3,30,204.3,32.6z"/>
		</g>
	</g>
</g>
</svg>
